<svg width="16" height="32" viewBox="0 0 16 32" fill="none" xmlns="http://www.w3.org/2000/svg">
<g clip-path="url(#clip0_3_2)">
<path d="M10.2341 0.5L10.2228 7.30256L10.2115 14.1051L9.68339 12.526C9.68321 12.5254 9.68256 12.5234 9.68238 12.5229L9 27.6672C9.67091 29.6752 10.0304 30.7471 10.0344 30.7514C10.0397 30.757 10.422 30.7814 10.884 30.8057C12.2839 30.8794 14.0185 31.0371 15.3345 31.2104C15.6391 31.2505 15.9014 31.2711 15.9172 31.2561C15.9329 31.2411 15.9415 24.3148 15.9363 15.8644L15.9266 0.5H13.0804H10.2341V0.5Z" fill="#B1060F"/>
<path d="M0 0.5V15.88C0 24.339 0.00780973 31.2683 0.0173714 31.2784C0.0269325 31.2885 0.521211 31.2391 1.11577 31.1685C1.71032 31.0979 2.53204 31.0102 2.94179 30.9735C3.57022 30.9173 5.44652 30.7894 5.66379 30.788C5.72699 30.7876 5.73104 30.442 5.7402 24.2737L5.74987 17.7598L6.20385 19.1212C6.27401 19.3316 6.29602 19.3973 6.36437 19.6023L7.04657 4.46171C6.90203 4.02857 6.9778 4.25594 6.81215 3.75956C6.25475 2.08929 5.78176 0.672594 5.76103 0.611351L5.7233 0.5H2.86168H0Z" fill="#B1060F"/>
<path d="M0 0.5L1.5282e-06 9.13321L5.73829 25.2658C5.73889 24.8961 5.73957 24.6963 5.7402 24.2737L5.74987 17.7598L6.20385 19.1212C8.73092 26.6998 10.0886 30.7632 10.0966 30.7716C10.1019 30.7772 10.4842 30.8017 10.9462 30.826C12.3461 30.8996 14.0807 31.0574 15.3967 31.2306C15.7013 31.2708 15.9636 31.2913 15.9793 31.2763C15.9902 31.266 15.9973 27.8699 15.9992 23.079L10.2877 5.67594L10.285 7.3228L10.2736 14.1254L9.74558 12.5462C9.2296 11.0032 8.88509 9.97127 6.81215 3.75956C6.25475 2.08929 5.78176 0.672594 5.76103 0.611351L5.7233 0.5H2.86168H0Z" fill="url(#paint0_radial_3_2)"/>
<path d="M5.74975 17.7677V17.7598L6.20373 19.1212C8.7308 26.6998 10.0885 30.7632 10.0965 30.7716C10.1018 30.7772 10.4841 30.8017 10.9461 30.826C12.3459 30.8996 14.0806 31.0574 15.3965 31.2306C15.6997 31.2706 15.8819 31.2832 15.9001 31.2687L10.2735 14.1222V14.1254L9.74546 12.5462C9.22948 11.0032 8.88497 9.97127 6.81203 3.75956C6.25463 2.08929 5.78164 0.672594 5.76091 0.611351L5.72318 0.5H2.86156H0L5.74975 17.7677Z" fill="#E50914"/>
<path d="M10.2228 7.30256L10.2115 14.1051L9.68339 12.526C9.68321 12.5254 9.68256 12.5234 9.68238 12.5229L9 27.6672C9.67091 29.6752 10.0304 30.7471 10.0344 30.7514C10.0397 30.757 10.422 30.7814 10.884 30.8057C12.2839 30.8794 14.0185 31.0371 15.3345 31.2104C15.6391 31.2505 15.9014 31.2711 15.9172 31.2561C15.9329 31.2411 15.9415 24.3148 15.9363 15.8644L15.9266 0.5H13.0804H10.2341L10.2228 7.30256Z" fill="#B1060F"/>
<path d="M0 0.5V15.88C0 24.339 0.00780973 31.2683 0.0173714 31.2784C0.0269325 31.2885 0.521211 31.2391 1.11577 31.1685C1.71032 31.0979 2.53204 31.0102 2.94179 30.9735C3.57022 30.9173 5.44652 30.7894 5.66379 30.788C5.72699 30.7876 5.73104 30.442 5.7402 24.2737L5.74987 17.7598L6.20385 19.1212C6.27401 19.3316 6.29602 19.3973 6.36437 19.6023L7.04657 4.46171C6.90203 4.02857 6.9778 4.25594 6.81215 3.75956C6.25475 2.08929 5.78176 0.672594 5.76103 0.611351L5.7233 0.5H2.86168H0Z" fill="#B1060F"/>
<path d="M1.5282e-06 9.13321L5.73829 25.2658C5.73889 24.8961 5.73957 24.6963 5.7402 24.2737L5.74987 17.7598L6.20385 19.1212C8.73092 26.6998 10.0886 30.7632 10.0966 30.7716C10.1019 30.7772 10.4842 30.8017 10.9462 30.826C12.3461 30.8996 14.0807 31.0574 15.3967 31.2306C15.7013 31.2708 15.8052 31.2671 15.821 31.2521C15.8319 31.2418 15.9973 27.8699 15.9992 23.079L10.2877 5.67594L10.285 7.3228L10.2736 14.1254L9.74558 12.5462C9.2296 11.0032 8.88509 9.97127 6.81215 3.75956C6.25475 2.08929 5.78176 0.672594 5.76103 0.611351L5.7233 0.5H2.86168H0L1.5282e-06 9.13321Z" fill="url(#paint1_radial_3_2)"/>
<path d="M5.74975 17.7677V17.7598L6.20373 19.1212C8.7308 26.6998 9.99202 30.7715 10 30.78C10.0053 30.7856 10.4841 30.8017 10.9461 30.826C12.3459 30.8996 14.0806 31.0574 15.3965 31.2306C15.6997 31.2706 15.8819 31.2832 15.9001 31.2687L10.2735 14.1222V14.1254L9.74546 12.5462C9.22948 11.0032 8.88497 9.97127 6.81203 3.75956C6.25463 2.08929 5.78164 0.672594 5.76091 0.611351L5.72318 0.5H2.86156H0L5.74975 17.7677Z" fill="#E50914"/>
</g>
<defs>
<radialGradient id="paint0_radial_3_2" cx="0" cy="0" r="1" gradientUnits="userSpaceOnUse" gradientTransform="translate(12.3603 6.87731) rotate(-10.7988) scale(3.48847 3.8193)">
<stop/>
<stop offset="1" stop-opacity="0"/>
</radialGradient>
<radialGradient id="paint1_radial_3_2" cx="0" cy="0" r="1" gradientUnits="userSpaceOnUse" gradientTransform="translate(12.3549 6.87759) rotate(-10.7988) scale(3.48847 3.81875)">
<stop/>
<stop offset="1" stop-opacity="0"/>
</radialGradient>
<clipPath id="clip0_3_2">
<rect width="16" height="31" fill="white" transform="translate(0 0.5)"/>
</clipPath>
</defs>
</svg>
